<svg xmlns="http://www.w3.org/2000/svg" width="512.6969604492188" height="520.7879028320312" style=""><rect id="backgroundrect" width="100%" height="100%" x="0" y="0" fill="none" stroke="none" style="" class=""/><!--!Font Awesome Free 6.6.0 by @fontawesome - https://fontawesome.com License - https://fontawesome.com/license/free Copyright 2024 Fonticons, Inc.--><g class="currentLayer" style=""><title>Layer 1</title><path fill="none" stroke="#ffffff" stroke-opacity="1" stroke-width="30" stroke-dasharray="none" stroke-linejoin="miter" stroke-linecap="butt" stroke-dashoffset="" fill-rule="nonzero" opacity="1" marker-start="" marker-mid="" marker-end="" d="M17.120958053011634,260.8787437337357 C17.120958053011634,125.6702788571968 124.67350637220719,16.151422307200363 257.45443022306586,16.151422307200363 C390.2353540739246,16.151422307200363 497.78790239312,125.6702788571968 497.78790239312,260.8787437337357 C497.78790239312,396.0872086102747 390.2353540739246,505.6060651602711 257.45443022306586,505.6060651602711 C124.67350637220719,505.6060651602711 17.120958053011634,396.0872086102747 17.120958053011634,260.8787437337357 z" id="svg_11" class=""/><path d="M279.915408444483,128.79063943949947 c11.104738339913126,2.5833504346028593 18.322818260856657,15.15234389526677 16.101870592874036,28.069096068281063 l-0.9823422377615455,5.6634990297062675 c-2.263658200059214,13.264510885364679 -6.449290343564931,25.883184162078646 -12.300633238057618,37.35922166964135 l61.503166190288084,0 c11.318291000296071,0 20.501055396762695,10.681160450761821 20.501055396762695,23.84631170402639 c0,9.190765969260172 -4.4846058680418395,17.189216353319026 -11.062027807836536,21.163601637323424 C358.33194533710025,249.2641933608828 361.3216825824615,255.9709685276402 361.3216825824615,263.4726207511985 c0,11.625076955712865 -7.175369388866944,21.312641085473587 -16.6143969777931,23.399193359575897 c1.8792634113699138,3.6266265716540147 2.9470267132846377,7.849410935908687 2.9470267132846377,12.37027419646369 c0,10.581800818661712 -5.936763958645864,19.57384752372166 -14.137186117350943,22.653996118825074 c0.29897372453612264,1.6394339296518143 0.46981585284248,3.3782274914037385 0.46981585284248,5.166700869205719 c0,13.16515125326457 -9.182764396466624,23.84631170402639 -20.501055396762695,23.84631170402639 l-41.642768774674224,0 c-8.1150010945519,0 -16.016449528720855,-2.7820696988030793 -22.764713596821906,-7.998450384058853 l-16.443554849486745,-12.76771272486413 C221.23113737124976,321.2999266334625 214.39745223899553,306.395981818446 214.39745223899553,290.4487608663784 l0,-19.027369547171055 l0,-23.84631170402639 l0,-12.37027419646369 c0,-14.506506286616053 5.680500766186331,-28.168455700381177 15.375791547572021,-37.25986203754124 l3.1605793736675825,-2.931109146953244 c11.318291000296071,-10.532121002611655 19.048897306158672,-25.33670618552804 21.867792423213544,-41.830405114146295 l0.9823422377615455,-5.6634990297062675 c2.2209476679826254,-12.916752173014295 13.026712283359629,-21.312641085473587 24.131450623272755,-18.72929065087073 zM159.72797118096167,207.83122677513694 l27.334740529016926,0 c7.559764177556243,0 13.667370264508463,7.1042136951578625 13.667370264508463,15.897541136017594 l0,111.28278795212316 c0,8.79332744085973 -6.10760608695222,15.897541136017594 -13.667370264508463,15.897541136017594 l-27.334740529016926,0 c-7.559764177556243,0 -13.667370264508463,-7.1042136951578625 -13.667370264508463,-15.897541136017594 L146.0606009164532,223.72876791115453 c0,-8.79332744085973 6.10760608695222,-15.897541136017594 13.667370264508463,-15.897541136017594 z" id="svg_1" class="" fill="#ffffff" fill-opacity="1"/></g></svg>